<svg width="35" height="87" viewBox="0 0 35 87" fill="none" xmlns="http://www.w3.org/2000/svg">
<path d="M28 55.2V13C28 5.9 23.3 0 17.5 0C11.7 0 7 5.8 7 13V55.2C2.6 58.5 0 63.7 0 69.2C0 78.8 7.9 86.7 17.5 86.7C27.1 86.7 35 78.8 35 69.2C35 63.6 32.4 58.5 28 55.2ZM17.5 83.2C9.8 83.2 3.5 76.9 3.5 69.2C3.5 64.5 5.8 60.2 9.7 57.6C10.2 57.3 10.5 56.7 10.5 56.1V13C10.5 7.9 13.7 3.5 17.5 3.5C21.3 3.5 24.5 7.8 24.5 13V56.1C24.5 56.7 24.8 57.2 25.3 57.6C29.2 60.2 31.5 64.6 31.5 69.2C31.5 76.9 25.2 83.2 17.5 83.2Z" fill="#F3EFE2"/>
<path d="M21 62V15.1C21 12.6 19.4 10.5 17.5 10.5C15.6 10.5 14 12.6 14 15.1V62C10.9 63.4 8.7 66.4 8.7 70C8.7 74.8 12.6 78.8 17.5 78.8C22.4 78.8 26.3 74.9 26.3 70C26.2 66.5 24 63.4 21 62Z" fill="#F3EFE2"/>
</svg>
