<svg width="34" height="35" viewBox="0 0 34 35" fill="none" xmlns="http://www.w3.org/2000/svg">
<path d="M22.2288 20.0919C21.6716 19.4789 20.7229 19.4337 20.1099 19.991C19.4969 20.5483 19.4517 21.4969 20.009 22.1099L22.2288 20.0919ZM30.7718 33.949C31.329 34.5619 32.2777 34.6071 32.8907 34.0499C33.5037 33.4926 33.5489 32.5439 32.9916 31.9309L30.7718 33.949ZM23.5 13.5C23.5 19.0228 19.0228 23.5 13.5 23.5V26.5C20.6797 26.5 26.5 20.6797 26.5 13.5H23.5ZM13.5 23.5C7.97715 23.5 3.5 19.0228 3.5 13.5H0.5C0.5 20.6797 6.3203 26.5 13.5 26.5V23.5ZM3.5 13.5C3.5 7.97715 7.97715 3.5 13.5 3.5V0.5C6.3203 0.5 0.5 6.3203 0.5 13.5H3.5ZM13.5 3.5C19.0228 3.5 23.5 7.97715 23.5 13.5H26.5C26.5 6.3203 20.6797 0.5 13.5 0.5V3.5ZM20.009 22.1099L30.7718 33.949L32.9916 31.9309L22.2288 20.0919L20.009 22.1099Z" fill="#D8315B"/>
</svg>
