<svg width="95" height="58" viewBox="0 0 95 58" fill="none" xmlns="http://www.w3.org/2000/svg">
<path d="M45.5 17.6C46.5 17.6 47.3 16.8 47.3 15.8V1.79999C47.3 0.799988 46.5 0 45.5 0C44.5 0 43.7 0.799988 43.7 1.79999V15.8C43.8 16.8 44.5 17.6 45.5 17.6Z" fill="#282828"/>
<path d="M83.1 16.8999L73.2 26.8C72.5 27.5 72.5 28.6 73.2 29.3C73.5 29.6 74 29.8 74.4 29.8C74.8 29.8 75.2999 29.6 75.6 29.3L85.5 19.3999C86.2 18.6999 86.2 17.5999 85.5 16.8999C84.9 16.1999 83.7999 16.1999 83.1 16.8999Z" fill="#282828"/>
<path d="M8.9 16.8999C8.2 17.5999 8.2 18.6999 8.9 19.3999L18.8 29.3C19.1 29.6 19.6 29.8 20 29.8C20.4 29.8 20.9 29.6 21.2 29.3C21.9 28.6 21.9 27.5 21.2 26.8L11.3 16.8999C10.7 16.1999 9.6 16.1999 8.9 16.8999Z" fill="#282828"/>
<path d="M92.8 54.4H75.3C74.8 39.4 62.5 27.3 47.3 27.3C32.2 27.3 19.8 39.4 19.3 54.4H1.79999C0.799988 54.4 0 55.2 0 56.2C0 57.2 0.799988 58 1.79999 58H92.8C93.8 58 94.6 57.2 94.6 56.2C94.6 55.2 93.7 54.4 92.8 54.4ZM47.3 30.7C60.5 30.7 71.3 41.2 71.8 54.3H22.9C23.3 41.2 34 30.7 47.3 30.7Z" fill="#282828"/>
</svg>
