<svg width="74" height="60" viewBox="0 0 74 60" fill="none" xmlns="http://www.w3.org/2000/svg">
<path d="M10.5 29.8C11.5 29.8 12.3 29 12.3 28C12.3 14.5 23.3 3.5 36.8 3.5C50.3 3.5 61.3 14.5 61.3 28C61.3 29 62.1 29.8 63.1 29.8C64.1 29.8 64.9 29 64.9 28C64.9 12.6 52.3 0 36.9 0C21.5 0 8.9 12.6 8.9 28C8.8 29 9.49998 29.8 10.5 29.8Z" fill="#282828"/>
<path d="M55.6 52.3C56.3 51.6 56.4 50.5 55.7 49.8C55.1 49.1 53.9 49 53.2 49.7C48.7 53.8 42.8 56.1 36.7 56.1C30.6 56.1 24.7 53.8 20.2 49.7C19.5 49.1 18.4 49.1 17.7 49.8C17 50.5 17.1 51.6 17.8 52.3C23 57 29.7 59.6 36.6 59.6C43.7 59.6 50.4 57 55.6 52.3Z" fill="#282828"/>
<path d="M1.79999 38.6H71.8C72.8 38.6 73.6 37.8 73.6 36.8C73.6 35.8 72.8 35 71.8 35H1.79999C0.799988 35 0 35.8 0 36.8C0 37.8 0.799988 38.6 1.79999 38.6Z" fill="#282828"/>
<path d="M61.3 42.1H12.3C11.3 42.1 10.5 42.9 10.5 43.9C10.5 44.9 11.3 45.7 12.3 45.7H61.3C62.3 45.7 63.1 44.9 63.1 43.9C63.1 42.9 62.2 42.1 61.3 42.1Z" fill="#282828"/>
</svg>
