<svg width="95" height="53" viewBox="0 0 95 53" fill="none" xmlns="http://www.w3.org/2000/svg">
<path d="M24.5 15.2C24.5 16.2 25.3 17 26.3 17H68.3C69.3 17 70.1 16.2 70.1 15.2C70.1 14.2 69.3 13.4 68.3 13.4H26.3C25.3 13.5 24.5 14.2 24.5 15.2Z" fill="#F3EFE2"/>
<path d="M94.7 12.7C94.7 6.70001 90.2 0 83.6 0C82.6 0 81.8 0.800018 81.8 1.80002C81.8 2.80002 82.6 3.60001 83.6 3.60001C87.9 3.60001 91.2 8.60002 91.2 12.8C91.2 17.1 87.7 20.6 83.4 20.6H33.3C32.3 20.6 31.5 21.4 31.5 22.4C31.5 23.4 32.3 24.2 33.3 24.2H83.4C89.6 24 94.7 18.9 94.7 12.7Z" fill="#F3EFE2"/>
<path d="M91.2 41C91.2 34.8 86.3 27.5 79.9 27.5H19.3C18.3 27.5 17.5 28.3 17.5 29.3C17.5 30.3 18.3 31.1 19.3 31.1H79.9C84 31.1 87.7 36.7 87.7 41.1C87.7 45.6 84.3 49.2 80.1 49.2C79.1 49.2 78.3 50 78.3 51C78.3 52 79.1 52.8 80.1 52.8C86.2 52.6 91.2 47.4 91.2 41Z" fill="#F3EFE2"/>
<path d="M7 15.2C7 16.2 7.80005 17 8.80005 17H19.3C20.3 17 21.1 16.2 21.1 15.2C21.1 14.2 20.3 13.4 19.3 13.4H8.80005C7.80005 13.5 7 14.2 7 15.2Z" fill="#F3EFE2"/>
<path d="M1.80005 31H12.3C13.3 31 14.1 30.2 14.1 29.2C14.1 28.2 13.3 27.4 12.3 27.4H1.80005C0.800049 27.4 0 28.2 0 29.2C0 30.2 0.800049 31 1.80005 31Z" fill="#F3EFE2"/>
<path d="M15.8 24H26.3C27.3 24 28.1 23.2 28.1 22.2C28.1 21.2 27.3 20.4 26.3 20.4H15.8C14.8 20.4 14 21.2 14 22.2C14 23.2 14.8 24 15.8 24Z" fill="#F3EFE2"/>
</svg>
